HIERARCHY
ROOT Hips
{
 OFFSET 0.000000 0.000000 0.000000
 CHANNELS 6 Xposition Yposition Zposition Yrotation Xrotation Zrotation
 JOINT Chest
 {
  OFFSET 0.000000 9.585900 0.002600
  CHANNELS 3 Yrotation Xrotation Zrotation
  JOINT Chest2
  {
   OFFSET 0.000000 9.601200 -0.005300
   CHANNELS 3 Yrotation Xrotation Zrotation
   JOINT Chest3
   {
    OFFSET 0.000000 9.561800 0.000000
    CHANNELS 3 Yrotation Xrotation Zrotation
    JOINT Chest4
    {
     OFFSET 0.000000 9.552100 0.000000
     CHANNELS 3 Yrotation Xrotation Zrotation
     JOINT Neck
     {
      OFFSET 0.000000 14.453000 0.000000
      CHANNELS 3 Yrotation Xrotation Zrotation
      JOINT Head
      {
       OFFSET 0.000000 8.936500 -0.011300
       CHANNELS 3 Yrotation Xrotation Zrotation
       End Site
       {
        OFFSET 0.000000 17.073600 -0.006000
       }
      }
     }
     JOINT RightCollar
     {
      OFFSET -2.921100 9.558500 0.000000
      CHANNELS 3 Yrotation Xrotation Zrotation
      JOINT RightShoulder
      {
       OFFSET -13.519700 0.000000 0.000000
       CHANNELS 3 Yrotation Xrotation Zrotation
       JOINT RightElbow
       {
        OFFSET 0.000000 -29.696600 0.000000
        CHANNELS 3 Yrotation Xrotation Zrotation
        JOINT RightWrist
        {
         OFFSET 0.000000 -24.004700 0.000000
         CHANNELS 3 Yrotation Xrotation Zrotation
         End Site
         {
          OFFSET 0.000000 -17.728500 0.000000
         }
        }
       }
      }
     }
     JOINT LeftCollar
     {
      OFFSET 2.921100 9.558500 0.000000
      CHANNELS 3 Yrotation Xrotation Zrotation
      JOINT LeftShoulder
      {
       OFFSET 13.519700 0.000000 0.000000
       CHANNELS 3 Yrotation Xrotation Zrotation
       JOINT LeftElbow
       {
        OFFSET 0.000000 -29.696600 0.000000
        CHANNELS 3 Yrotation Xrotation Zrotation
        JOINT LeftWrist
        {
         OFFSET 0.000000 -24.004700 0.000000
         CHANNELS 3 Yrotation Xrotation Zrotation
         End Site
         {
          OFFSET 0.000000 -17.728500 0.000000
         }
        }
       }
      }
     }
    }
   }
  }
 }
 JOINT RightHip
 {
  OFFSET -7.771700 -0.012900 -0.001300
  CHANNELS 3 Yrotation Xrotation Zrotation
  JOINT RightKnee
  {
   OFFSET 0.000000 -40.869800 0.001200
   CHANNELS 3 Yrotation Xrotation Zrotation
   JOINT RightAnkle
   {
    OFFSET 0.000000 -39.717900 0.002100
    CHANNELS 3 Yrotation Xrotation Zrotation
    JOINT RightToe
    {
     OFFSET 0.000000 -4.965400 11.033500
     CHANNELS 3 Yrotation Xrotation Zrotation
     End Site
     {
      OFFSET 0.000000 -1.423100 5.872300
     }
    }
   }
  }
 }
 JOINT LeftHip
 {
  OFFSET 7.771700 -0.012900 -0.001300
  CHANNELS 3 Yrotation Xrotation Zrotation
  JOINT LeftKnee
  {
   OFFSET 0.000000 -40.869800 0.001200
   CHANNELS 3 Yrotation Xrotation Zrotation
   JOINT LeftAnkle
   {
    OFFSET 0.000000 -39.717900 0.002100
    CHANNELS 3 Yrotation Xrotation Zrotation
    JOINT LeftToe
    {
     OFFSET 0.000000 -4.965400 11.033500
     CHANNELS 3 Yrotation Xrotation Zrotation
     End Site
     {
      OFFSET 0.000000 -1.423100 5.872300
     }
    }
   }
  }
 }
}
MOTION
Frames: 8
Frame Time: 0.008333
0.000000 85.388000 0.000000 0.000000 -5.767877 0.000000 0.000000 11.653817 0.000000 0.000000 -5.885947 0.000000 0.000000 -0.000000 0.000000 0.000000 -0.000000 0.000000 0.000000 12.528835 0.000000 0.000000 0.711642 0.000000 0.000000 -0.000000 0.000000 0.000000 0.000000 -90.000000 0.000000 -2.309062 0.000000 0.000000 2.309062 0.000000 0.000000 -0.000000 0.000000 0.000000 -0.000000 90.000000 0.000000 -2.309062 0.000000 0.000000 2.309062 0.000000 0.000000 8.520406 0.000000 0.000000 1.905762 0.000000 -0.000000 -4.658285 0.000000 0.000000 -0.000000 0.000000 0.000000 8.520406 0.000000 0.000000 1.905762 0.000000 -0.000000 -4.658285 0.000000 0.000000 -0.000000 0.000000
-43.007247 57.958163 12.090527 177.755699 -51.993914 -3.947803 3.316892 22.704798 3.300998 1.695150 13.003495 1.691345 2.196241 16.250408 2.188171 1.692956 13.012957 1.687272 0.080372 15.769876 2.554364 -0.746220 -6.462826 4.668729 1.188468 3.865339 -0.504677 -7.558608 -14.609376 -8.237768 -52.403087 -41.854196 112.411554 4.138804 17.944925 -4.230860 -10.826346 0.044952 0.706264 5.500672 -7.555361 14.219153 42.826893 -30.913654 -109.440945 2.496527 9.327856 -9.011387 3.964393 -19.442309 -2.320663 -33.055799 73.561838 -36.716743 5.828256 -14.589430 11.225115 0.007078 -0.042405 -0.021103 -7.741177 -16.875893 5.735004 86.765395 80.897710 86.398429 1.136431 -21.508299 -18.916304 0.005582 0.000744 -0.008083
-43.006744 57.957160 12.088044 177.748473 -51.988273 -3.945680 3.317872 22.697636 3.303297 1.696092 13.001437 1.692420 2.199496 16.249171 2.189230 1.692202 12.987816 1.696717 0.091040 15.793299 2.504366 -0.722111 -6.427621 4.611748 1.181371 3.894318 -0.514240 -7.504808 -14.649238 -8.273148 -53.228570 -42.999118 112.809386 4.243697 18.108719 -5.327167 -10.807148 0.077614 0.694767 5.457559 -7.626360 14.222520 43.377168 -31.476698 -109.648263 2.859423 9.734795 -7.095852 3.963608 -19.450402 -2.314711 -33.064077 73.562522 -36.728472 5.826228 -14.580843 11.226729 0.010390 -0.045441 -0.017732 -7.735726 -16.880957 5.732023 86.790459 80.895167 86.432198 1.144162 -21.514442 -18.923376 0.003787 0.001555 -0.006385
-43.006584 57.955992 12.085115 177.741952 -51.983330 -3.941894 3.318050 22.688450 3.301369 1.698402 13.004187 1.694327 2.194012 16.224359 2.192030 1.695607 13.005855 1.694345 0.092949 15.802056 2.496786 -0.682527 -6.377553 4.539623 1.167400 3.902419 -0.510143 -7.418097 -14.698266 -8.319701 -54.093747 -44.195619 113.220421 4.295740 18.288230 -6.515831 -10.777011 0.080978 0.687267 5.402829 -7.673373 14.219303 43.957746 -32.115311 -109.854130 3.342305 10.103488 -5.078206 3.964854 -19.458315 -2.311999 -33.099030 73.560782 -36.767598 5.831007 -14.574706 11.231492 0.001370 -0.040421 -0.012966 -7.732337 -16.885621 5.733111 86.796416 80.894606 86.440162 1.143564 -21.515633 -18.923210 0.003752 0.000332 -0.005987
-43.006437 57.954792 12.081846 177.738484 -51.980356 -3.940051 3.318940 22.682645 3.300274 1.696556 12.997982 1.696005 2.196488 16.224625 2.190378 1.695794 13.004468 1.696654 0.103222 15.817065 2.471736 -0.648171 -6.307839 4.494613 1.155114 3.902458 -0.500249 -7.300057 -14.745182 -8.380986 -54.986982 -45.419664 113.635379 4.300728 18.456717 -7.788164 -10.768441 0.078585 0.673752 5.353643 -7.725194 14.218320 44.563026 -32.824028 -109.990384 3.947505 10.376607 -3.090933 3.966625 -19.461952 -2.311556 -33.124962 73.562914 -36.793987 5.834082 -14.577267 11.233525 0.000098 -0.037179 -0.011134 -7.728806 -16.888011 5.732835 86.792558 80.894713 86.439672 1.142708 -21.514136 -18.920762 0.004655 -0.002456 -0.007532
-43.006102 57.953568 12.078455 177.739250 -51.979465 -3.942140 3.318578 22.678269 3.299159 1.695852 12.971617 1.686947 2.201117 16.243991 2.200695 1.695979 12.953870 1.684166 0.125952 15.894266 2.448856 -0.619936 -6.223189 4.475115 1.149351 3.919305 -0.451530 -7.143387 -14.768699 -8.475775 -55.892777 -46.672158 114.035340 4.265133 18.566015 -9.119183 -10.767330 0.132742 0.671737 5.291350 -7.790799 14.211908 45.168238 -33.593623 -109.952815 4.616784 10.518858 -1.303538 3.963083 -19.463384 -2.309533 -33.139052 73.571425 -36.811407 5.831735 -14.584302 11.235359 0.005192 -0.033606 -0.009251 -7.726694 -16.890237 5.735425 86.828523 80.904999 86.482113 1.147527 -21.518945 -18.922397 0.009174 -0.004077 -0.006195
-43.005973 57.951807 12.075505 177.735756 -51.977020 -3.939227 3.319434 22.666955 3.292855 1.694378 12.960916 1.687120 2.200094 16.205330 2.192049 1.699072 12.971321 1.692526 0.136522 15.942017 2.442514 -0.573349 -6.100103 4.429822 1.154105 3.924607 -0.422229 -6.956901 -14.807299 -8.561586 -56.815288 -47.956308 114.408875 4.196577 18.596698 -10.474201 -10.763982 0.163102 0.663440 5.201509 -7.862236 14.207398 45.728169 -34.362632 -109.738002 5.256495 10.533837 0.274648 3.964416 -19.470002 -2.310186 -33.161352 73.577786 -36.839953 5.843257 -14.587687 11.239880 -0.001362 -0.035271 -0.009674 -7.720585 -16.892401 5.737508 86.836615 80.908115 86.495407 1.142554 -21.523266 -18.922140 0.008463 -0.003217 -0.003436
-43.004498 57.948816 12.073938 177.728282 -51.966659 -3.941230 3.321304 22.645742 3.293447 1.697158 12.955700 1.689024 2.200565 16.187033 2.190187 1.699223 12.961576 1.691774 0.152764 16.003238 2.429980 -0.531760 -5.959031 4.395239 1.162414 3.924617 -0.388115 -6.727649 -14.847301 -8.652406 -57.791155 -49.250765 114.773408 4.107601 18.581313 -11.826178 -10.773741 0.161753 0.627178 5.085182 -7.907172 14.231455 46.214840 -35.081619 -109.463955 5.862822 10.418916 1.793799 3.966598 -19.483895 -2.301802 -33.156054 73.583517 -36.838057 5.844391 -14.585860 11.244152 -0.005493 -0.037090 -0.011450 -7.716008 -16.902413 5.751719 86.844549 80.912822 86.507072 1.136950 -21.527152 -18.920640 0.013398 -0.002681 -0.003234
